/* XPM */
static char *undo_xpm[]={
"16 15 4 1",
". c None",
"b c #000080",
"# c #0000ff",
"a c #d9d9d9",
"................",
"......#.........",
"......a#........",
"#a#a#a#a#..bb...",
"a#a#a#a#a#.bbbb.",
"#a#a#a#a#..bbbb.",
"......a#....bbbb",
"......#......bbb",
"...b.........bbb",
"..bb........bbbb",
".bbbbbbbbbbbbbb.",
"bbbbbbbbbbbbbbb.",
".bbbbbbbbbbbb...",
"..bb............",
"...b............"};
