/* XPM */
static char *wxLua_xpm[]={
"79 78 39 1",
"K c #003062",
"w c #00309c",
"e c #0030cd",
"l c #00659c",
"f c #0065cd",
"D c #313062",
"b c #31309c",
"# c #3130cd",
"F c #316562",
"c c #31659c",
"a c #3165cd",
"v c #3165ff",
"A c #31999c",
"r c #3199cd",
"E c #623062",
"k c #62309c",
"d c #6230cd",
"C c #626562",
"o c #62659c",
". c #6265cd",
"g c #6265ff",
"z c #62999c",
"h c #6299cd",
"m c #6299ff",
"x c #62ceff",
"n c #9c65cd",
"p c #9c65ff",
"j c #9c99cd",
"i c #9c99ff",
"B c #9ccecd",
"q c #9cceff",
"H c #c5c2c5",
"I c #cd99cd",
"G c #cd99ff",
"J c #cdcecd",
"s c #cdceff",
"t c #cdffff",
"y c #ffceff",
"u c #ffffff",
".#aabac##c#c#c#ababa#aaa#aaac#cdaaac#caaaba#c#cec#fa##c#c#.a.ghihjihj.ijjihijij",
"abaka#aca#a#l#c#a#acab.a.cda#aac#c#aa#a.aa#a#c#a#c#c#c#aaaa.a.h.i.jijijmjijjmjn",
"c#caba.#.c#c#a#c#ca#.aaba.aac#a#aadca.#c#abac#fba#c#aabab#a#a..hnmjgjhijihijijm",
"#a#cabac#abababaaa.a.a..aada#oaabaa#abaa.c#a#c#al#aaaa#aabac.a.mjhihjihjijnmjji",
"cac##ababa#c#aaa.a..a.aadacaa#c#.#c#a.a#a#c#l#c#ababa.ac#a#a#...m.hph.inhihjgjh",
"#a#cabaa#c#ababa#.aoa.b.ac#aba#aca#ca#cabaa#a#aba#aa#a..aac.a.h.j.ihnhhihnmnhi.",
"c#c#c#c#caba#c#aoa..aa.a#aba#ca#aba#ac#a#ac#cabaac#aoaa..a#a..hgh.hgjg.hphhi.hj",
"#c#a#c#a#a#c#acaa.aadabac#aba#c#c#ac#.ac.a.aaaa#a#aaaa.aa.a.a..hgh.h.jh.hg.hnm.",
"c#cbababc#c#c#a#c#abac#a#c#aba#aa#c#a.a..aa#a#.cac.a.#aa#.ab......hgh.imnh.m...",
"c#aaba#abaec#ac#ac#aba#c#aba#labac.a.a..a..o.ca#a.a.a.baca.aaa.hgh...ihjih...a.",
"ac#aababaca#aa#c#aba#c#ac#aba#ciih.h.hhh.haha..h.....aa#a#.aa.a..hghhnijmnha.a.",
"cdaoaaa.a...aoa#c#aba#a#abaachiqiihahghmh.h.h.r..ah..a.caaada...m....mhj.m.a..h",
"#caad.a..a.a.aa#aba#cabac#aaissssqsimhmnimjmh..h.haa..a#c#ca.a...h..h.ijg.a.a..",
"a#c#ca.a.a..a..c#ac#a#aba#histutuuuuiiiqiiiijhh.h...aaaa#aa.a.a.a....hi.h.a.a.h",
"ab.aa.c.aaac#a#aaba#c#ca#hstuuuuuuutqqqiqiqjmiijh.hc.oac#c#aa.....hvhphj..aa...",
"bab#c#a#cda#acaba#abaa#a.qsuuuuuuuussqiqiimmjmjiihh.a..c#aoa..ha.rgh.hi...a.aa.",
"a#ac#ac#ac#c#a#aba#abawaqsuuuuuuuuutssqqixihihijijm.hc.acba..h.i..hnihnm.haa.aa",
"bc#aba#c#aba#c#ca#ca#acissuuuuuuuuuuttsqiiimhmhiijjh.a.a.c..hj.hhgjmjmh..a.aa.a",
"a#c#abaabaabaa#aba#c#c.qsuuuuuuuuuuuutsqsqmjmjghhiih.hc.c#oh..hph.hjinh...a.#.a",
"ba#ca#c#aba#c#c#aba#a#iqsusutuuuuuuuutsqqiimhmhjmjhih.a.ao..hnh.j.i.hi.m.aaa.a.",
"aba#c#ac#a#a#aabaa#cahjqsstyuuuuuuuuuutsqqiiihphhiih..or.aooo..h.jhi.hj.h.ada..",
"#aba#c#abac#c#c#aba#cijsssstuuuuuuuuuttssimjmhmjmhjhhha.c.c.z.oh.h..hphg...a...",
"c#ac#ac#a#ac#a#ca#caajiqsssstuutuuuuttsqqiqmihi.hgjm....a.cooo..hnhnhh.h.h..h.h",
"bfbac#abac#a#ca#aa#c.hiqissssttstuutusssqiijmhmhihhjh.r.za.cocoo..h.hgj.ga.a.h.",
"ca#a#c#a#abaa#cabaa#hhjisqqsssssttststsqiqimji.jhgjgh..a.a.cooooo...h..h..aha.a",
"ababa#ac#ca#ca#aaba#h.iqisiqssqqqsssqsqiiijihjmhihhh.hc.A.cobococo.o.h..a.a.a.a",
"#ac#ac#a#a#c#aba#aba.hjiBiqiqimiqqqqsiqiqmmhimjhihi.h...a..cCboboc..h...a.a.a..",
"aba#c#abac#aa#aca#aah.jiiqiqjmhiiiiiqiiqhjmjmhnmj.hm.haoa.c.cDcocooc..h.a..a..m",
"j.ha#aca#ac#caba#ca..hhjijijmhmmiiiqimBmihihnmhhijmj..haor.aEFkFkco.o..h.a..mhj",
"ijija#a#c#a#a#aaa#ca..hijqih.m.hmhmhijmjmj.mhhnhhihh.ha.a.c.FbFkcocoao.a.a.hjij",
"iBijhabaa#cabababaaach.hijhm..h.mjmjmhih.mjhnmhhijih..hoa.acDCbFkcoo....a..mnmj",
"jGjij#aabaa#aaa#a#c#.ahhjihiahamhmhmjm.ih.mhhj.h.ijhh..azaooDcEcCoooo.c.a..hhij",
"GBijiha#aababa#caa#a....hihh.ah.h..mnhh.mj.hphhihiji.ha.a.acEFDoDcoc.o.caa.hnij",
"BGBiHi.ca#aaa#aa#caachah.hih.hvh.mhhhphhhhm.hjghjijhh.oroaoFDkFDokooo.ca.a.hiji",
"sqIqjij.ac#abac#a#a#h.a.hh.ha.h.h.hgjhghphnhmjhjiqij.ha..aobCFkFkFooc..c.c.hihj",
"HiBijih.#aa#aa#acaac.ao.a.h..h.hgh.hhhj.hhmhnmhjijjh...chaoFkDFEcocooo.a.a..jij",
"iBGjij.aabac#aca#a#aa.r.h.a.ahm.h.hghghmhnhhihjisjihh.r.a.FEFCbCDoooc.oaoa.mjjm",
"jijij.aaaa#aada#aca#a..aoa.A..mjhh.h.hj.jmhphiisijhh...c.cCbCbFkFbCcoo..a..jmjj",
"jjijhaa#ca.#caaa#a#aca.ha.a.a.hjihghhghhmjhjisqjBih.h.r..oDCDCDCcEckoc.o..hhjih",
"ijjh..aa#aca#a#oaaoa#a.c.hc.ac.hijh.h.h.h.ijqjijihj..a.czDoFkFcEcDoco.ohh.hphin",
"jmjmj..aadaaaoa#a#aa.aah.a.roaa.hmjhi.hijihisjjjhh.hah..CcEFDCDCbCckco...h.jihi",
"ijijihi.haba#aaaac#a#c#..c.a..aa..h.hhi.hjhjhihm.h...aocEFEcEcEcDckco.h.h.jmnjh",
"ijqjqiHiGj..aa....aaa.aa.r..rc.ca.ah.h.hhmnhhh.hh.hah.cCDcEFCDcEcEcooo.h.h.jmjm",
"jijGHiiBiBijjiIqjijj...h.hc.a.a.roa..hh.jhhgj.h.h...aoDFEFDoDCDcEcoco..hnhihnmj",
"BjqjqHsjssqsqjqGjssijqijijih.cha.a.r.h.h..hh.h.h.a.ccDDDcEcEFbCbFboc.oh.hnhijhp",
"jijsisssBGJsIsiJqsJqsjsqJiHjh.aoaoa.h.h.h.h..ha.ahoDDDDFDFEcEFkFkcooo..jhi.hphj",
"jsjsHsHissqHqsBsGqssssJssBGjjhoa.r.....ha..r.a..obDDDFDbDoDFbCcEcoboa.h.jhihj.m",
"HiBisqsJsJssiJGsBsHsJqssssBsjjcoh.azar.a.r..aorDDFKDDbDFDDCbCbFoboco.ohnhphnm.j",
"jiJiJGBsqGBsjsqJssssssJsJsiHjj.cbboc.oah.oaocDDDDDDbDFDDcDFEcEcboco.o.h.hjm.jhg",
"iHiJqHsiJqGBsiJqGBsBssqsqJsijjh.cbbDbDDDDFDDDDDcDDDFDDDFEbFbFbCckoo....hg.j.mnh",
"iBiiJisBGBsiHisiJqGsJqJssiJqHij.cbcbFbcFbDDDDFDDDcDDDbFbDFkFkFkcoc.c.h.hnh.m.hi",
"HiHisBGqIqIqiJiJqGBsqGsjsJsiHijhocbcbDbFbFbFbDbFDDDcDDDFbFbCbcooo.o...h.hghnhnh",
"jiBGBGBGqIqjsiBisBGqIsssJqsjqjjj.cbbcbcDckFbFDFDbFbDFbFbCkFbooco.c..h...hnh.mh.",
"ijiBiBGBiqGBiHisjqGJqBiJqGBGjijhnh.cbcbcDcEcEbcDFbFDbFbCbcoocoo...h...h.m.h.nhi",
"BiHijGBiJiHiiqjqGBisGsBsGBsiBijijjjjocbcbbcDcCboDoDoDobooocooc.o...h.h...hph.mn",
"jijiBiHiqjqjsjiHisBGBiGBsisjijijqjjjhcbockcoocockcobocoocooo....h.h...m.h..mjji",
"jijijqiHiIiqjiBijisjsBisjsjqijhiHqjijh.ocoockoocoFocoooooo..o.h.h.h.h.hghgjjiji",
"jjqjijijqiHijijiqjqjiiHiiBijijijsiHjjuujao.ocooookooooo.h.z.h..hnh.hgh.j.hijiji",
"jijijqjiHijiBijiHiIqjijqjiijijqijsijmuuja.o..c.coaoao.ho.h.h.hjhjmnh.m.ihijijij",
"jmjjijijijqjijijijiijqjijijijijiBijihuuja.ao..o.c.c..o.h.hnhnhnmjjm.j.hjpjijiBi",
"jjijjijiBijijijqjijijijijijijmjiijih.uuja..aha.a...oh.h.h.h.hmjjmjihgjghhjijiBi",
"ijjijiJsjijijqssjijijssBssqjmjijqsBm.uuja.a...a..ciBj.h.jhisjnmjijisstsImjijqji",
"jmjhijtusjijiJuuijijquuisuujijmquus.auuia.r.ah.h.hsuqh.mnhsuqhnhiuuuuuuuujjijsj",
"jjijjmJuujihiuuusjhiJuujjuutjmjuush..uuja...h.a.a.tuIm.hmntuIm.iuusj.jsuusjqjij",
"hihijijuuijjiuuusjijtushiiuusjsuujm.auui.rga.gh.h.suq.hph.suqnhsuuh.jh.sutjijij",
"njihjmjsushiBusuujmjuuijhjsuusuujhhg.uuja.ahgr.ghgtuHm.hghsuJh.jjjhph.jsuujijjm",
"hijjijjsutjisujuuijquuhiihituuushph.auuiam.a..h.h.suq.m.h.uuih.mhphhjistuyjhihn",
"ihjmjmjjuujjuujsuqjsusjhihjiuutjmhg.auuj.aghghghghsus.hghgsuJgj.jsyuuuuuuthnhnm",
"hinjjhihuuijusjqusjuuijmnmjsuuujgj.a.uuir.h..m..hgtuBgh.hjsus.hiuutsJijjuyh.h.j",
"jjmjmjjisussuqjiuuiuujmjhjiuusuuha.aauujg.vhgahgh.sush.m.hyuB.hsusj.h.hsuu.hnm.",
"ihjinmj.juusujjhuutushjgjiuusjuusa.v.uuir...hgh.mhsus.mnhiuus.juujh.jghyut...h.",
"ji.jhjijiuuuuhihsuuujihjmsuuh.iuuia.auuj.vhv.h.gh.suujhghsuuq.huuij.h.juuu.h..j",
"nhjmjmjmjsuusjmjGuuujhphGuujm.hsuuha.uuuuuuuuuuu.mjuuusJuuyuJ.ijuusjisuuuu..h..",
"hijjgjj.jiuujihjiuusjmjiuush.hghsus.auuuuuuuuuuuh.mjuuuuyjtus.hjsuuuuujhuuj..hn",
"jjgjjmjmjhjijhi.jjjmjhgjhjhihgh..h.rgh.h.mh.hmh.mjijmjqjhmnhjhgh.hjij.h.nhh.j.h",
"hijhihnjmjhjmjhihmjhphjmjgh.h..aag..a.ga..gh..iihijijih.i.hm.j.jgjh.h.h.h.nh.gj",
"hjmj.ihijmjmnmjgjmnmjm.jmhphg.a.mhm.mhmhm.mjimjijiijmjjghj.jghih.hgj.hnm.hghnh.",
"nhnmjjhnmjnihjmj.hmj.jm.hnh.a.a.aihijgjphijmjiiBiqjijmjjmnmjhnhihnh.ih.j.j.j.jm"};
